# xmcd
#
# Track frame offsets: 
#        150
#        20177
#        39167
#        66810
#        109977
#        131752
#        158892
#        177617
#        201852
#        225167
#
# Disc length: 3320 seconds
#
# Revision: 0
# Processed by: cddbd v1.5.2PL0 Copyright (c) Steve Scherf et al.
# Submitted via: ExactAudioCopy v0.99pb5
#
DISCID=870cf60a
DTITLE=Eric Clapton  - Behind The Sun Japan Tour 1985 - Disc 03
DYEAR=1900
DGENRE=
TTITLE0=Tulsa Time
TTITLE1=Motherless Children
TTITLE2=I Shot The Sheriff
TTITLE3=Same Old Blues
TTITLE4=Tangled In Love
TTITLE5=White Room
TTITLE6=Hold Me Now
TTITLE7=Wonderful Tonight
TTITLE8=She's Waiting
TTITLE9=Lay Down Sally
EXTD=
EXTT0=
EXTT1=
EXTT2=
EXTT3=
EXTT4=
EXTT5=
EXTT6=
EXTT7=
EXTT8=
EXTT9=
PLAYORDER=
